<?xml version="1.0" encoding="iso-8859-1"?>
<!-- Generator: Adobe Illustrator 16.0.0, SVG Export Plug-In . SVG Version: 6.00 Build 0)  -->
<!DOCTYPE svg PUBLIC "-//W3C//DTD SVG 1.1//EN" "http://www.w3.org/Graphics/SVG/1.1/DTD/svg11.dtd">
<svg version="1.1" id="Capa_1" xmlns="http://www.w3.org/2000/svg" xmlns:xlink="http://www.w3.org/1999/xlink" x="0px" y="0px"
	 width="210.876px" height="210.876px" viewBox="0 0 210.876 210.876" style="enable-background:new 0 0 210.876 210.876;"
	 xml:space="preserve">
<g>
	<path d="M93.39,120.886c0-9.724,7.913-17.604,17.628-17.604c1.315,0,2.375,1.042,2.375,2.363c0,1.333-1.06,2.368-2.375,2.368
		c-7.103,0-12.863,5.785-12.863,12.872c0,1.328-1.066,2.375-2.375,2.375C94.465,123.249,93.39,122.202,93.39,120.886z
		 M202.295,114.992c1.096,0.883,1.747,2.204,1.771,3.623c0.03,1.413-0.572,2.746-1.662,3.69
		c-2.479,2.155-61.574,52.056-130.226,26.858c-2.463-0.913-3.723-3.629-2.832-6.107c0.898-2.441,3.575-3.769,6.104-2.807
		c3.48,1.278,6.859,1.814,10.288,2.667c-5.148-5.906-8.385-13.579-8.385-22.019c0-11.484,5.812-21.653,14.632-27.724
		c-30.446,4.868-55.162,20.21-64.21,26.549c10.918,13.377,54.248,56.921,138.062,27.931c2.479-0.815,5.2,0.456,6.046,2.947
		c0.865,2.472-0.45,5.194-2.94,6.053c-20.904,7.216-39.531,10.096-55.978,10.096c-64.801,0-95.46-44.816-95.828-45.389
		c-1.37-2.034-0.929-4.805,0.986-6.339c1.684-1.346,41.769-32.973,92.083-32.973C160.522,82.031,200.614,113.64,202.295,114.992z
		 M86.868,120.886c0,13.348,10.824,24.187,24.149,24.187c13.336,0,24.175-10.839,24.175-24.187
		c0-13.316-10.839-24.152-24.175-24.152C97.698,96.728,86.868,107.569,86.868,120.886z M191.364,118.815
		c-9.693-6.588-32.717-20.279-60.843-25.294c8.549,6.117,14.17,16.075,14.17,27.364c0,8.866-3.502,16.867-9.098,22.884
		C161.789,138.198,182.456,125.295,191.364,118.815z M21.979,102.253c1.982-1.711,2.207-4.716,0.484-6.704L8.355,79.206
		c-1.711-1.982-4.704-2.183-6.71-0.487c-1.982,1.717-2.207,4.723-0.487,6.71l14.112,16.343c0.941,1.084,2.262,1.644,3.599,1.644
		C19.97,103.404,21.069,103.018,21.979,102.253z M209.291,78.883c-1.967-1.76-4.981-1.577-6.717,0.393l-14.364,16.1
		c-1.735,1.945-1.57,4.969,0.384,6.707c0.907,0.816,2.046,1.199,3.166,1.199c1.315,0,2.606-0.532,3.544-1.604l14.371-16.1
		C211.416,83.639,211.245,80.622,209.291,78.883z M111.691,72.216c2.615,0,4.758-2.131,4.758-4.756V48.891
		c0-2.618-2.131-4.765-4.758-4.765c-2.625,0-4.756,2.146-4.756,4.765V67.46C106.936,70.097,109.072,72.216,111.691,72.216z
		 M42.883,82.734c0.862,1.577,2.497,2.481,4.18,2.481c0.768,0,1.547-0.186,2.262-0.584c2.314-1.255,3.167-4.129,1.915-6.455
		l-8.86-16.331c-1.242-2.292-4.11-3.154-6.442-1.912c-2.308,1.252-3.166,4.135-1.915,6.452L42.883,82.734z M77.634,74.679
		c0.387,0,0.779-0.042,1.16-0.137c2.558-0.648,4.095-3.225,3.447-5.772l-4.558-18.058c-0.643-2.558-3.215-4.04-5.767-3.468
		c-2.558,0.648-4.098,3.23-3.45,5.788l4.558,18.057C73.576,73.251,75.515,74.679,77.634,74.679z M140.222,74.542
		c0.39,0.106,0.779,0.137,1.169,0.137c2.119,0,4.056-1.428,4.604-3.59l4.549-18.057c0.651-2.557-0.896-5.133-3.446-5.788
		c-2.479-0.585-5.128,0.91-5.767,3.468L136.77,68.77C136.13,71.317,137.664,73.894,140.222,74.542z M170.375,85.965
		c1.693,0,3.318-0.91,4.178-2.475l8.865-16.337c1.255-2.316,0.396-5.2-1.912-6.451c-2.302-1.267-5.188-0.387-6.442,1.912
		l-8.865,16.331c-1.255,2.326-0.39,5.2,1.912,6.448C168.841,85.773,169.62,85.965,170.375,85.965z"/>
</g>
<g>
</g>
<g>
</g>
<g>
</g>
<g>
</g>
<g>
</g>
<g>
</g>
<g>
</g>
<g>
</g>
<g>
</g>
<g>
</g>
<g>
</g>
<g>
</g>
<g>
</g>
<g>
</g>
<g>
</g>
</svg>
